:SAMPLES-PER-SECOND 30
:FULLY-SPECIFIED
:DEGREES
47
root  -5.51574 40.9318 0.247114 7.70096 -88.9039 -7.19357
RightUpLeg  4.03242 -1.84089 -1.71321
RightLeg  -3.0356 -25.7825 1.48689
RightFoot  -0.0799602 -0.359464 3.51388
RightToes  -3.11842e-008 1.75238e-005 3.56266e-009
Spine  -3.5866 -0.687057 -2.16886
Spine1  7.47391 -0.874215 1.21737
HEad  -13.6453 -0.30288 3.21654
LeftShoulder1  2.12334 -3.7817 -22.8632
LeftArm  -29.3148 25.0329 -57.1832
LeftForeArm  39.777 -44.4895 -8.26643
LeftHand  -0.401725 -1.74723 6.69192
RightShoulder  2.9469 5.69276 26.0134
RightArm  -21.0586 -19.3319 50.5253
RightForeArm  26.2913 34.0848 6.07618
RightHand  -0.469779 8.09181 -4.40732
LeftUpLeg  3.77318 1.11297 2.58378
LeftLeg  -2.80483 16.6028 -0.69417
LeftFoot  -0.227676 0.270543 -2.8193
LeftToes  4.78904e-008 1.4679e-008 1.35657e-009
48
root  -5.49791 40.9311 0.252533 9.22814 -88.9103 -8.79942
RightUpLeg  4.12954 -1.81858 -1.68429
RightLeg  -3.13694 -25.7954 1.51779
RightFoot  -0.0322554 -0.359141 3.50886
RightToes  -3.11842e-008 1.75238e-005 3.56266e-009
Spine  -3.94801 -0.620388 -2.03326
Spine1  8.06601 -0.805265 1.15883
HEad  -13.9186 -0.684803 3.55907
LeftShoulder1  2.13913 -3.8415 -22.8384
LeftArm  -28.6509 22.2193 -54.6896
LeftForeArm  37.5857 -49.7615 -10.4003
LeftHand  -0.552499 -2.47727 8.37428
RightShoulder  2.89656 5.6448 25.6099
RightArm  -19.0899 -16.8982 48.1109
RightForeArm  23.1583 39.5289 7.77211
RightHand  -0.62613 8.71311 -5.51862
LeftUpLeg  3.77417 1.19419 2.64057
LeftLeg  -2.68182 16.5216 -0.707302
LeftFoot  -0.271375 0.272232 -2.82014
LeftToes  4.78904e-008 1.4679e-008 1.35657e-009
49
root  -5.47565 40.9313 0.264855 12.7005 -88.9458 -12.4036
RightUpLeg  4.2585 -1.82706 -1.65278
RightLeg  -3.18857 -25.7292 1.55973
RightFoot  0.0152947 -0.352814 3.41067
RightToes  -3.11842e-008 1.75238e-005 3.56266e-009
Spine  -3.87713 -0.612848 -1.76279
Spine1  8.05988 -0.776831 0.98534
HEad  -14.0193 -0.725015 3.75566
LeftShoulder1  2.05169 -3.62323 -22.4872
LeftArm  -29.4191 18.694 -52.0889
LeftForeArm  35.8452 -55.7907 -13.4966
LeftHand  -0.522633 -1.78878 8.67633
RightShoulder  2.73305 5.38502 24.6574
RightArm  -18.4268 -13.3977 45.536
RightForeArm  22.8895 45.6882 9.86946
RightHand  -0.797897 8.60585 -6.98437
LeftUpLeg  3.91691 1.27805 2.72079
LeftLeg  -2.73534 16.4417 -0.758442
LeftFoot  -0.258063 0.272216 -2.78893
LeftToes  4.78904e-008 1.4679e-008 1.35657e-009
50
root  -5.45606 40.9358 0.270916 10.829 -89.0211 -10.4746
RightUpLeg  4.21097 -1.95645 -1.77891
RightLeg  -3.31121 -25.5269 1.70191
RightFoot  0.0892115 -0.351632 3.39232
RightToes  -3.11842e-008 1.75238e-005 3.56266e-009
Spine  -3.50604 -0.577969 -1.58422
Spine1  6.97704 -0.687957 0.771993
HEad  -13.2227 -0.84442 3.65412
LeftShoulder1  2.02694 -3.6942 -21.8137
LeftArm  -31.0397 14.499 -49.1738
LeftForeArm  33.6869 -61.4058 -17.5372
LeftHand  -0.495922 -0.239685 10.2868
RightShoulder  2.56976 5.14878 23.5475
RightArm  -19.6715 -9.99831 42.8681
RightForeArm  21.469 52.7791 13.1252
RightHand  -0.812418 8.11555 -7.33079
LeftUpLeg  4.1216 1.25248 2.6809
LeftLeg  -3.32814 16.5215 -0.964746
LeftFoot  -0.0509732 0.275875 -2.78805
LeftToes  4.78904e-008 1.4679e-008 1.35657e-009
51
root  -5.43605 40.95 0.272552 4.42486 -89.322 -3.81292
RightUpLeg  3.87068 -2.01512 -1.9536
RightLeg  -3.3304 -25.1915 1.72601
RightFoot  0.205096 -0.352018 3.39832
RightToes  -3.11842e-008 1.75238e-005 3.56266e-009
Spine  -2.99806 -0.410569 -1.44911
Spine1  5.50679 -0.456765 0.504841
HEad  -12.0451 -1.15212 3.49384
LeftShoulder1  1.91032 -3.54314 -20.7024
LeftArm  -34.2619 9.35997 -47.1739
LeftForeArm  34.7376 -66.1134 -22.3353
LeftHand  -0.535435 0.183059 11.9947
RightShoulder  2.32556 4.78997 21.7866
RightArm  -22.626 -6.58469 40.9055
RightForeArm  22.5955 60.1589 17.808
RightHand  -0.875807 8.48248 -7.68234
LeftUpLeg  3.94069 1.1406 2.52262
LeftLeg  -3.56874 16.9617 -1.07942
LeftFoot  0.280509 0.29143 -2.88083
LeftToes  4.78904e-008 1.4679e-008 1.35657e-009
52
root  -5.43865 40.9583 0.274934 -3.83925 -89.4522 4.67113
RightUpLeg  3.60676 -2.05746 -2.07067
RightLeg  -3.32208 -25.0278 1.72434
RightFoot  0.295773 -0.354017 3.42934
RightToes  -3.11842e-008 1.75238e-005 3.56266e-009
Spine  -2.61123 -0.305506 -1.18213
Spine1  4.23425 -0.253452 0.0438223
HEad  -11.8332 -1.34123 4.14864
LeftShoulder1  1.84686 -3.57517 -19.6026
LeftArm  -37.4652 5.02395 -45.2709
LeftForeArm  39.6843 -71.4396 -30.7272
LeftHand  -0.547487 0.415053 12.8149
RightShoulder  2.12603 4.48285 20.2785
RightArm  -26.7165 -3.04032 39.2444
RightForeArm  26.7009 66.729 24.3033
RightHand  -0.953188 8.35042 -8.40068
LeftUpLeg  3.97134 1.05235 2.41562
LeftLeg  -4.12611 17.2407 -1.29364
LeftFoot  0.546953 0.29704 -2.88569
LeftToes  4.78904e-008 1.4679e-008 1.35657e-009
